/vscmnt/brussel_pixiu_data/_data_brussel/112/vsc11236/PredSimResults/SUBJ06opt3D/trackIG/worker_02.mot
version=1
nRows=8
nColumns=50
inDegrees=yes
endheader
                time	         pelvis_tilt	         pelvis_list	     pelvis_rotation	           pelvis_tx	           pelvis_ty	           pelvis_tz	       hip_flexion_r	     hip_adduction_r	      hip_rotation_r	        knee_angle_r	       ankle_angle_r	         mtp_angle_r	       hip_flexion_l	     hip_adduction_l	      hip_rotation_l	        knee_angle_l	       ankle_angle_l	         mtp_angle_l	    lumbar_extension	      lumbar_bending	     lumbar_rotation	 ercspn_r/activation	 intobl_r/activation	 extobl_r/activation	    abd_r/activation	    add_r/activation	hamstrings_r/activation	bifemsh_r/activation	glut_max_r/activation	iliopsoas_r/activation	rect_fem_r/activation	  vasti_r/activation	gastroc_r/activation	 soleus_r/activation	tib_ant_r/activation	 ercspn_l/activation	 intobl_l/activation	 extobl_l/activation	    abd_l/activation	    add_l/activation	hamstrings_l/activation	bifemsh_l/activation	glut_max_l/activation	iliopsoas_l/activation	rect_fem_l/activation	  vasti_l/activation	gastroc_l/activation	 soleus_l/activation	tib_ant_l/activation	
          0.00000000	          0.43298754	         -5.27861280	          9.96681371	          0.00000000	          0.95624380	         -0.02677214	         16.63625921	          2.80637375	        -22.75777945	          0.50629587	         -3.70627742	          0.19513528	        -11.49512183	         -7.72097506	        -13.43113550	        -11.98135893	          8.98134774	         28.21099410	         -7.05289302	          3.19218091	         -5.57298504	          0.19112191	          0.20300516	          0.00999999	          0.00999999	          0.16554644	          0.02579042	          0.00999999	          0.01901511	          0.03649901	          0.10289803	          0.12152208	          0.00999999	          0.00999999	          0.42262431	          0.06398602	          0.00999999	          0.00999999	          0.09938598	          0.00999999	          0.00999999	          0.12256731	          0.02502857	          0.12549320	          0.04204219	          0.00999999	          0.18222755	          0.31318806	          0.01546355	
          0.01622525	          0.33636149	         -5.02435068	          9.98896935	          0.01526124	          0.95447692	         -0.02511599	         15.79666365	          2.85588779	        -22.86144394	          0.72207785	         -4.04239236	          0.19856968	        -12.04293036	         -7.76990931	        -13.96266979	        -12.53175352	          8.29703806	         29.66791804	         -6.59989700	          3.33286946	         -5.78760642	          0.16507016	          0.21189068	          0.00999999	          0.00999999	          0.13030834	          0.02510851	          0.00999999	          0.01496757	          0.02872986	          0.08099523	          0.10934261	          0.01192230	          0.01270420	          0.43404563	          0.07424375	          0.00999999	          0.00999999	          0.07823075	          0.00999999	          0.00999999	          0.09647772	          0.02604894	          0.09878081	          0.03309312	          0.01448647	          0.17421289	          0.29997525	          0.01217199	
          0.03245051	          0.24857350	         -4.79784537	          9.94668066	          0.03091883	          0.95292867	         -0.02337117	         14.93453153	          2.88685686	        -22.92165745	          0.71565821	         -4.39155270	          0.19197942	        -12.53547189	         -7.86917363	        -14.50641080	        -13.24064583	          7.47068346	         31.15389994	         -6.11897817	          3.54821068	         -5.97730050	          0.12993344	          0.18817428	          0.00999999	          0.00999999	          0.10257100	          0.03800522	          0.00999999	          0.02820246	          0.02261444	          0.06375464	          0.08606802	          0.00999999	          0.00999999	          0.47255698	          0.09960207	          0.00999999	          0.00999999	          0.06157861	          0.00999999	          0.01000001	          0.07594154	          0.02050418	          0.07775439	          0.02604894	          0.01613968	          0.14839939	          0.28095128	          0.00999999	
          0.04867576	          0.16711787	         -4.61988991	          9.83653043	          0.04672105	          0.95185505	         -0.02140647	         14.13752176	          2.95469801	        -23.09064550	          0.59301617	         -4.74242292	          0.16788114	        -12.85342002	         -8.06890281	        -15.04342781	        -14.27632507	          6.45958445	         32.67222387	         -5.63577929	          3.83743765	         -6.14077562	          0.11107604	          0.14811963	          0.00999999	          0.03489159	          0.08073781	          0.04777419	          0.00999999	          0.03985764	          0.01780075	          0.05018387	          0.06774764	          0.00999999	          0.00999999	          0.49924579	          0.13239764	          0.00999999	          0.00999999	          0.04847103	          0.02405203	          0.02328630	          0.05977668	          0.01613968	          0.06120365	          0.02050418	          0.01270420	          0.11681120	          0.25714153	          0.00999999	
          0.06490102	          0.08958782	         -4.48290816	          9.67206127	          0.06244498	          0.95159859	         -0.01918862	         13.42060195	          3.05116750	        -23.27906883	          0.28052295	         -4.71278722	          0.16228660	        -12.87135309	         -8.39149279	        -15.56474856	        -15.80795005	          5.15900704	         34.24159712	         -5.16678170	          4.17209779	         -6.28294081	          0.10626031	          0.11659099	          0.00999999	          0.06268312	          0.06355201	          0.05032987	          0.00999999	          0.06076583	          0.01401169	          0.03950177	          0.05332692	          0.00999999	          0.00999999	          0.47800284	          0.15328253	          0.00999999	          0.00999999	          0.03815352	          0.07857931	          0.03322357	          0.05756939	          0.01270420	          0.04933511	          0.01613968	          0.00999999	          0.09194685	          0.22840417	          0.00999999	
          0.08112627	          0.01250629	         -4.34324520	          9.46672838	          0.07791002	          0.95240491	         -0.01675189	         12.71947132	          3.15945872	        -23.33397136	         -0.11718654	         -4.15532684	          0.25490305	        -12.49223448	         -8.81525641	        -16.07163638	        -17.95968799	          3.46747621	         35.82145470	         -4.72634194	          4.49442111	         -6.40700289	          0.09929891	          0.09177351	          0.00999999	          0.07517941	          0.05002438	          0.06150177	          0.05481522	          0.06777425	          0.01102917	          0.03109345	          0.04197579	          0.00999999	          0.00999999	          0.42705590	          0.16069031	          0.00999999	          0.00999999	          0.03003219	          0.12703471	          0.06900282	          0.07325878	          0.00999999	          0.03883367	          0.01270420	          0.00999999	          0.07237511	          0.18712783	          0.00999999	
          0.09735153	         -0.06712792	         -4.14241718	          9.22581646	          0.09297044	          0.95422258	         -0.01415079	         11.98221875	          3.23406486	        -23.23828345	         -0.43593301	         -3.45225529	          0.45377709	        -11.66879392	         -9.29455830	        -16.55864330	        -20.79531671	          1.40987306	         37.18088037	         -4.33248175	          4.73823078	         -6.50918185	          0.09453696	          0.07223867	          0.00999999	          0.07488783	          0.03937622	          0.07438031	          0.09309852	          0.06842906	          0.00999999	          0.02447492	          0.03304085	          0.00999999	          0.00999999	          0.37882849	          0.15318459	          0.00999999	          0.00999999	          0.02363956	          0.15417947	          0.10674911	          0.06518230	          0.00999999	          0.03056756	          0.00999999	          0.00999999	          0.05696939	          0.14729593	          0.00999999	
          0.11357678	         -0.14892238	         -3.82705472	          8.95392219	          0.10753286	          0.95670578	         -0.01144986	         11.20761412	          3.20930423	        -23.05836148	         -0.63882061	         -2.82881435	          0.74257080	        -10.42014219	         -9.77583442	        -17.06010787	        -24.28202887	         -0.86589194	         37.92325740	         -4.00453632	          4.84841809	         -6.58418241	          0.08372179	          0.05686200	          0.00999999	          0.06683086	          0.03099463	          0.08239015	          0.07328163	          0.07743232	          0.00999999	          0.01926521	          0.02600780	          0.00999999	          0.00999999	          0.34315119	          0.14326845	          0.00999999	          0.00999999	          0.01860766	          0.18962286	          0.12334132	          0.08729887	          0.00999999	          0.03650751	          0.00999999	          0.00999999	          0.04484293	          0.11594262	          0.00999999	
